<svg width="125" height="16" viewBox="0 0 125 16" fill="none" xmlns="http://www.w3.org/2000/svg">
<g clip-path="url(#clip0_1_643)">
<path d="M30.4307 12.4124V9.33156H38.8795V6.25067H30.4307V3.50207H41.3893V0.310222H25.7591V15.6043H41.4888V12.4124H30.4307Z" fill="white"/>
<path d="M58.931 9.86341C59.9914 9.50874 60.8113 8.94356 61.3912 8.1677C61.971 7.39185 62.261 6.41289 62.261 5.23081C62.261 3.64978 61.7101 2.43437 60.6084 1.58459C59.5067 0.734963 57.9536 0.310074 55.9491 0.310074H44.2969V15.6043H48.9665V10.3068H54.0626L57.5664 15.6043H62.733L58.931 9.86341ZM57.5146 5.49689C57.5146 5.99926 57.3427 6.40933 56.9928 6.72711C56.645 7.04474 56.0652 7.2037 55.2533 7.2037H48.9665V3.39126H55.2533C56.0816 3.39126 56.6656 3.54267 57.0052 3.84563C57.3449 4.14859 57.5146 4.55126 57.5146 5.05363V5.49689Z" fill="white"/>
<path d="M80.488 7.54726C79.0716 6.99319 77.5185 6.63852 75.8287 6.48326C74.1389 6.32815 72.5858 6.19511 71.1694 6.0843C69.753 5.97348 69.0448 5.52652 69.0448 4.74326C69.0448 4.07837 69.3886 3.63126 70.076 3.40222C70.7635 3.17319 71.8445 3.05867 73.3189 3.05867C74.5614 3.05867 75.5553 3.17689 76.3009 3.41333C77.0463 3.64978 77.477 4.12993 77.5931 4.85407H82.3393C82.1735 3.12519 81.3246 1.884 79.7921 1.13037C78.2598 0.376741 76.1021 0 73.3189 0C70.5524 0 68.3821 0.373185 66.8084 1.11941C65.2345 1.86563 64.4476 3.09585 64.4476 4.80993C64.4476 6.524 65.1558 7.66548 66.5722 8.23437C67.9888 8.80326 69.5417 9.16533 71.2315 9.32044C72.9213 9.47556 74.4744 9.60859 75.8908 9.71941C77.3072 9.83022 78.0154 10.2994 78.0154 11.1268C78.0154 11.777 77.6469 12.2277 76.9096 12.479C76.1725 12.7302 75.0584 12.8557 73.5674 12.8557C72.1261 12.8557 71.0327 12.7227 70.2873 12.4567C69.5417 12.1908 69.0861 11.6514 68.9205 10.8387H64.1743C64.3399 12.6267 65.1682 13.9196 66.6592 14.7176C68.1502 15.5156 70.4529 15.9145 73.5674 15.9145C76.6156 15.9145 78.8851 15.5193 80.3761 14.7287C81.8671 13.9382 82.6126 12.6415 82.6126 10.8388C82.6126 9.19867 81.9044 8.10148 80.488 7.54726Z" fill="white"/>
<path d="M99.1623 0.310222V9.02119C99.1623 10.4988 98.773 11.4815 97.9944 11.9692C97.2158 12.4569 96.0395 12.7006 94.4657 12.7006C92.8918 12.7006 91.7116 12.4567 90.9246 11.9692C90.1379 11.4815 89.7444 10.499 89.7444 9.02119V0.310222H85.0726V9.1763C85.0726 11.5554 85.8762 13.2732 87.4831 14.3296C89.09 15.3861 91.4176 15.9144 94.4657 15.9144C97.4146 15.9144 99.6385 15.3861 101.138 14.3296C102.637 13.273 103.387 11.5553 103.387 9.1763V0.310222H99.1623Z" fill="white"/>
<path d="M122.111 7.54726C120.694 6.99319 119.141 6.63852 117.452 6.48326C115.762 6.32815 114.209 6.19511 112.792 6.0843C111.376 5.97348 110.668 5.52652 110.668 4.74326C110.668 4.07837 111.011 3.63126 111.699 3.40222C112.386 3.17319 113.467 3.05867 114.942 3.05867C116.184 3.05867 117.178 3.17689 117.924 3.41333C118.669 3.64978 119.1 4.12993 119.216 4.85407H123.962C123.796 3.12519 122.947 1.884 121.415 1.13037C119.883 0.376741 117.725 0 114.942 0C112.175 0 110.005 0.373185 108.431 1.11941C106.857 1.86563 106.07 3.09585 106.07 4.80993C106.07 6.524 106.779 7.66548 108.195 8.23437C109.611 8.80326 111.165 9.16533 112.854 9.32044C114.544 9.47556 116.097 9.60859 117.514 9.71941C118.93 9.83022 119.638 10.2994 119.638 11.1268C119.638 11.777 119.27 12.2277 118.532 12.479C117.795 12.7302 116.681 12.8557 115.19 12.8557C113.749 12.8557 112.656 12.7227 111.91 12.4567C111.165 12.1908 110.709 11.6514 110.543 10.8387H105.797C105.963 12.6267 106.791 13.9196 108.282 14.7176C109.773 15.5156 112.076 15.9145 115.19 15.9145C118.238 15.9145 120.508 15.5193 121.999 14.7287C123.49 13.9382 124.235 12.6415 124.235 10.8388C124.235 9.19867 123.527 8.10148 122.111 7.54726Z" fill="white"/>
<path d="M17.9356 14.0601C18.4968 13.4113 21.3821 8.94622 18.6001 4.71674C17.1946 2.58 14.8911 1.35896 10.5942 0.298519H13.2332C17.4107 0.298519 20.6461 0.700741 22.0832 2.24074C25.9594 6.39467 19.0047 13.2161 17.9356 14.0601Z" fill="#D4FF27"/>
<path d="M15.367 15.4591C15.367 15.4591 14.7999 15.6164 14.1726 15.6164C13.3732 15.6164 12.6215 15.4391 11.9631 15.125C11.3936 14.8573 10.8925 14.4861 10.4949 14.0409L0 0.298519H5.83756L14.1725 11.3978C14.1725 11.3978 14.1828 11.3904 14.2035 11.3738C14.5701 11.0893 17.5062 8.496 16.1335 4.64296C16.9226 5.33007 17.7301 6.38667 17.9538 8.06015C18.488 12.048 16.0091 14.8665 15.3671 15.4594L15.367 15.4591Z" fill="white"/>
</g>
<defs>
<clipPath id="clip0_1_643">
<rect width="124.235" height="16" fill="white"/>
</clipPath>
</defs>
</svg>
